<svg width="120" height="106" viewBox="0 0 120 106" fill="none" xmlns="http://www.w3.org/2000/svg">
<path opacity="0.9" d="M91.8947 95.25C93.1768 95.24 94.4136 95.723 95.3498 96.5989C96.2859 97.4749 96.8498 98.6771 96.9249 99.9569C97 101.237 96.5805 102.497 95.7533 103.476C94.926 104.456 93.7541 105.08 92.4797 105.22L91.8947 105.255H4.99475C3.72029 105.254 2.49446 104.766 1.56771 103.891C0.640971 103.016 0.0832825 101.82 0.008599 100.548C-0.0660844 99.2758 0.347875 98.023 1.16589 97.0457C1.98391 96.0685 3.14424 95.4404 4.40979 95.29L4.99475 95.25H91.8947ZM75.5498 22.0099L75.8748 22.5L119.325 97.75C119.968 98.8549 120.163 100.164 119.871 101.409C119.578 102.653 118.82 103.738 117.753 104.441C116.685 105.144 115.388 105.411 114.13 105.188C112.871 104.965 111.745 104.267 110.985 103.24L110.665 102.75L67.2147 27.5C66.582 26.396 66.3941 25.0923 66.6891 23.8546C66.9841 22.6169 67.7399 21.5382 68.8025 20.8383C69.8651 20.1384 71.1546 19.8699 72.4082 20.0876C73.6619 20.3053 74.7854 20.9928 75.5498 22.0099ZM62.4947 0.670073C63.5558 1.28304 64.3548 2.26429 64.74 3.4275C65.1253 4.59072 65.07 5.85491 64.5846 6.98003L64.3248 7.49995L20.8748 82.75C20.2412 83.8631 19.2045 84.6905 17.9786 85.0617C16.7528 85.4329 15.4312 85.3195 14.2865 84.7449C13.1418 84.1703 12.2612 83.1783 11.8265 81.9735C11.3917 80.7688 11.4358 79.4431 11.9498 78.2699L12.2147 77.75L55.6647 2.49996C56.3277 1.35156 57.4198 0.513583 58.7007 0.170377C59.9816 -0.172828 61.3463 0.00684648 62.4947 0.669876V0.670073ZM59.9947 57.6447C62.6469 57.6447 65.1904 58.6982 67.0658 60.5736C68.9412 62.449 69.9948 64.9925 69.9948 67.6447C69.9948 70.2968 68.9412 72.8404 67.0658 74.7157C65.1904 76.5911 62.6469 77.6447 59.9947 77.6447C57.3426 77.6447 54.799 76.5911 52.9237 74.7157C51.0483 72.8404 49.9947 70.2968 49.9947 67.6447C49.9947 64.9925 51.0483 62.449 52.9237 60.5736C54.799 58.6982 57.3426 57.6447 59.9947 57.6447Z" fill="#42B883"/>
</svg>
