<svg width="701" height="701" viewBox="0 0 701 701" fill="none" xmlns="http://www.w3.org/2000/svg">
  <path d="M153.231 71.3455C177.231 -5.15517 260.231 -19.1553 302.231 27.8455C312.231 20.3431 345.231 -21.157 407.731 13.846C425.231 -4.65522 538.731 -18.6553 543.231 88.8455C565.731 87.3447 613.231 91.3447 628.231 153.845C655.731 149.845 744.231 229.345 671.231 301.846C721.731 349.845 693.231 395.345 686.231 407.846C706.731 432.845 715.231 540.345 611.231 543.846C611.231 571.345 608.731 610.345 547.231 628.846C547.231 648.845 477.231 747.345 397.731 671.846C385.231 681.845 358.731 720.345 292.231 686.846C271.731 707.345 159.231 716.345 156.231 611.846C139.731 609.845 94.7314 618.345 71.2313 546.846C-5.26859 525.345 -18.2686 434.845 28.2313 397.846C4.73135 378.845 -13.7687 342.345 14.2313 291.846C-23.2687 236.345 17.2313 151.345 90.2313 157.345C90.2313 157.345 75.7312 95.3447 153.231 71.3455Z" fill="#000000" />
  <ellipse cx="179.231" cy="255.843" rx="53" ry="73" fill="#FFFFFF" />
  <ellipse cx="326.731" cy="255.843" rx="53.5" ry="73" fill="#FFFFFF" />
</svg>
